PathFileType	4	(X/Y/Z)	/Users/niels/Desktop/University/Third Semester/Perception and Action/Exam/Gymnastics Motion Tracking/Code for Gym Tracking/Scripts/Analyzed Data/kraft_bad_id5_2_nmspeed_Sports2D/kraft_bad_id5_2_nmspeed_Sports2D_px_person00.trc
DataRate	CameraRate	NumFrames	NumMarkers	Units	OrigDataRate	OrigDataStartFrame	OrigNumFrames
49.54128440366972	49.54128440366972	11	22	m	49.54128440366972	27	109
Frame#	Time	Hip			RHip			RKnee			RAnkle			RBigToe			RSmallToe			RHeel			LHip			LKnee			LAnkle			LBigToe			LSmallToe			LHeel			Neck			Head			Nose			RShoulder			RElbow			RWrist			LShoulder			LElbow			LWrist		
		X1	Y1	Z1	X2	Y2	Z2	X3	Y3	Z3	X4	Y4	Z4	X5	Y5	Z5	X6	Y6	Z6	X7	Y7	Z7	X8	Y8	Z8	X9	Y9	Z9	X10	Y10	Z10	X11	Y11	Z11	X12	Y12	Z12	X13	Y13	Z13	X14	Y14	Z14	X15	Y15	Z15	X16	Y16	Z16	X17	Y17	Z17	X18	Y18	Z18	X19	Y19	Z19	X20	Y20	Z20	X21	Y21	Z21	X22	Y22	Z22
27	0.545	0.4740389147396599	-0.47284942903529625	0.0	0.4495449298516512	-0.4707080369113839	0.0	0.46737034370095615	-0.6321895944295314	0.0	0.4062172831918271	-0.7684787763160703	0.0	0.44106343792479763	-0.81323210452902	0.0	0.42086921073134587	-0.8139904335076608	0.0	0.38585428153721574	-0.7816460203737862	0.0	0.5033586162681307	-0.47359395047755687	0.0	0.6073457543798846	-0.5766729272681009	0.0	0.5796098025006117	-0.7227932975061564	0.0	0.621346066745318	-0.758611263874787	0.0	0.6237064116048858	-0.7534596826701512	0.0	0.5594726935823389	-0.7450650858692177	0.0	0.5278224223840603	-0.2953693222625504	0.0	0.6086706747208683	-0.23023656600581657	0.0	0.5999820724083782	-0.2715180666947786	0.0	0.5265630512695768	-0.2922246995002401	0.0	0.6190722990401427	-0.28433754609122935	0.0	0.6991565508934238	-0.23655172624062473	0.0	0.5145213932544876	-0.2918955574431694	0.0	0.49882844903573953	-0.272401228438105	0.0	0.5087083438930867	-0.23829627858354435	0.0
28	0.5651851851851852	0.4910421507724602	-0.4735627650587926	0.0	0.46682957348256093	-0.471325541272235	0.0	0.490431760691771	-0.6320318383825737	0.0	0.4358529575507716	-0.7709627909068174	0.0	0.4734792051455852	-0.8129990911476644	0.0	0.45319089832664416	-0.8145342050255773	0.0	0.4160926714217929	-0.7854454118084141	0.0	0.5197407471378029	-0.4739700021113604	0.0	0.6218741059640489	-0.5787813935846303	0.0	0.6022058592850527	-0.7260250057487105	0.0	0.645539219848927	-0.7593815270649956	0.0	0.6475264113015159	-0.7548364587841796	0.0	0.5826792032331228	-0.7487885236692662	0.0	0.5500528608875034	-0.29682556054647496	0.0	0.6320000106199679	-0.23541747162050236	0.0	0.621454357030315	-0.2759654596832621	0.0	0.5477157267341364	-0.2937202528104927	0.0	0.6400291078033966	-0.286992370147192	0.0	0.7208635648739404	-0.2401628153507112	0.0	0.5348129376424264	-0.29252284587944716	0.0	0.5156047107171259	-0.27333750100427606	0.0	0.5234239026755158	-0.24060476085149005	0.0
29	0.5853703703703704	0.5077908324391766	-0.475635902363712	0.0	0.48388787763035584	-0.47333557881951416	0.0	0.5132482604819335	-0.6332515222665743	0.0	0.4651610402224749	-0.7748762349569475	0.0	0.5056924260958046	-0.8140239489595327	0.0	0.48536425220924106	-0.8163513455211957	0.0	0.4460774680184479	-0.7906853398957743	0.0	0.5357802118468834	-0.4757325527993106	0.0	0.6363202299350551	-0.581953118029966	0.0	0.6243110385003514	-0.7299244472958082	0.0	0.6693569626180647	-0.7609747094980019	0.0	0.6708540889918028	-0.7569337770028637	0.0	0.6055674148013175	-0.7530332825797634	0.0	0.5721255796427698	-0.29973931825009414	0.0	0.6552779222122892	-0.242228189250359	0.0	0.6428587957977949	-0.2819801774456442	0.0	0.5686524152175021	-0.29665751666775025	0.0	0.6607600048644442	-0.2913904743233631	0.0	0.7423659241135024	-0.24563146737694522	0.0	0.5553381860882493	-0.29457123397725066	0.0	0.534158627004284	-0.2759266846600938	0.0	0.5406058020271393	-0.24439247226708843	0.0
30	0.6055555555555556	0.5242969387764655	-0.4789420070243022	0.0	0.5007174349043746	-0.47662528664900194	0.0	0.5355568880904515	-0.635825904003074	0.0	0.4931369571117362	-0.7799770524720591	0.0	0.5364645399429009	-0.8162643992657416	0.0	0.5161593248699712	-0.8193366438096684	0.0	0.4747473850163959	-0.7969761878472965	0.0	0.551554989017885	-0.4788475829134449	0.0	0.6508326750397417	-0.5860792380390814	0.0	0.6458417692222544	-0.7344657717398291	0.0	0.6926943490511048	-0.7634181727548134	0.0	0.6936141537338635	-0.7597557737731715	0.0	0.6279912133787268	-0.7577724807749675	0.0	0.5938528350571008	-0.30411898576195867	0.0	0.6784126398568843	-0.25065859501491267	0.0	0.6640992123564474	-0.2895440482354983	0.0	0.589391407341594	-0.3010055564668853	0.0	0.6813048669591166	-0.2974483433007394	0.0	0.7636616951207229	-0.25281510549729913	0.0	0.576008662664819	-0.29810736214567507	0.0	0.5541501314366413	-0.28039475240993894	0.0	0.559700634926788	-0.24978010732994915	0.0
31	0.6257407407407408	0.5406463616036986	-0.4833366162653538	0.0	0.5173921401683427	-0.48105739651014073	0.0	0.5571489157165754	-0.6396915212350208	0.0	0.5189070052716556	-0.7859978251306385	0.0	0.5647520846372466	-0.8196135437241097	0.0	0.5445445917741591	-0.8233319311734902	0.0	0.501179637943957	-0.8039325477059218	0.0	0.5672189306668781	-0.48323553492743987	0.0	0.6655892035787154	-0.5910494329466524	0.0	0.6667342636500202	-0.7396391273398648	0.0	0.7154329202293739	-0.7667286946686686	0.0	0.7157284540204175	-0.7633085352142236	0.0	0.6498236364638117	-0.7630026353437809	0.0	0.6152335830088751	-0.30995200737226675	0.0	0.701444799394133	-0.2606938912720543	0.0	0.6852192551513222	-0.29863530167271896	0.0	0.6100531075761816	-0.30676179266149245	0.0	0.701847216747129	-0.30512325410138297	0.0	0.7849173386297483	-0.26166932187179104	0.0	0.5968716424288897	-0.3031955676098042	0.0	0.575438315505193	-0.28693011425081427	0.0	0.5804382397832747	-0.2569096534708515	0.0
32	0.645925925925926	0.5569232991778152	-0.4886522395316052	0.0	0.5339879282474305	-0.48645713524855455	0.0	0.5777563574805822	-0.6447125437362917	0.0	0.5416791472761321	-0.7926272920350796	0.0	0.5896504936146746	-0.8238898251906063	0.0	0.5696294555530477	-0.8281087594690649	0.0	0.5245421555201563	-0.8111702080588753	0.0	0.5829216604842269	-0.4887528581056482	0.0	0.6807164643949158	-0.5967284789332301	0.0	0.6868674363871888	-0.7454213825027501	0.0	0.7373570470596483	-0.7708966663509658	0.0	0.7370219702427625	-0.7675904689603427	0.0	0.6708936228634919	-0.7687241788929575	0.0	0.6363816856568777	-0.3171934837843552	0.0	0.7244669832797717	-0.272275262801726	0.0	0.7063333206277397	-0.30918704164604865	0.0	0.630783867789033	-0.3139277302509037	0.0	0.7226155211848263	-0.31439188632609905	0.0	0.8063774734110646	-0.27223461731105786	0.0	0.6180179166448161	-0.30986825817592273	0.0	0.5979909667150993	-0.2955933175819169	0.0	0.6027467060404763	-0.2659402604582821	0.0
33	0.6661111111111112	0.5731794346004504	-0.4946887275960198	0.0	0.5505454912497977	-0.4925995189786998	0.0	0.5969939430323841	-0.650653131869282	0.0	0.5607643277091945	-0.7995146434615056	0.0	0.610397896461665	-0.8288457439287523	0.0	0.5906631288194887	-0.8333742958169159	0.0	0.5441199799484207	-0.8183106958419968	0.0	0.5987635527334514	-0.4951877449690761	0.0	0.6962433335936575	-0.6029604240525491	0.0	0.7060388240363564	-0.7517550788992139	0.0	0.7581425160607506	-0.7758790016654741	0.0	0.7572050575459766	-0.7725805069276763	0.0	0.690966639914805	-0.7749159080884078	0.0	0.6574840964249219	-0.3257694823685025	0.0	0.7475904817055156	-0.28529193637326233	0.0	0.7275838755508276	-0.32108607260336974	0.0	0.6517327065508653	-0.3224810908132986	0.0	0.7438112712419478	-0.3252420458252465	0.0	0.8282992725565904	-0.2846242656969912	0.0	0.639567333332683	-0.31812592576836396	0.0	0.6218538488204022	-0.30635093605610214	0.0	0.6267377704008875	-0.2770477520845807	0.0
34	0.6862962962962964	0.5894700634107056	-0.5012034206964604	0.0	0.5671093164232087	-0.4992011707995532	0.0	0.6144213207955371	-0.6571781330822323	0.0	0.5757363286976412	-0.8062967505546884	0.0	0.6265304330664028	-0.8341974048373698	0.0	0.6071787667584428	-0.8388088611841747	0.0	0.5594768571575716	-0.8250031700702554	0.0	0.6148198270387355	-0.5022783840245947	0.0	0.7121256314160942	-0.6095952550771174	0.0	0.724036540955596	-0.7585531255233957	0.0	0.7774666627136523	-0.7815926660010152	0.0	0.7759829237544266	-0.7782160737364427	0.0	0.709808295148938	-0.7815228149075141	0.0	0.6788283916579824	-0.3355992701327804	0.0	0.7709859064616095	-0.29960174381982096	0.0	0.7491684990093489	-0.3342030023183568	0.0	0.6731110378460056	-0.3323672793158247	0.0	0.7656289421583968	-0.33768416745042484	0.0	0.8509528472198084	-0.29903054619360925	0.0	0.6617275879803293	-0.3279557107899418	0.0	0.6471917155390045	-0.3191553311326126	0.0	0.6527507858879728	-0.2904423434390704	0.0
35	0.7064814814814816	0.6058401811495702	-0.5078767244450225	0.0	0.5837200363660713	-0.5058952642891396	0.0	0.6295910119708171	-0.6638584426698673	0.0	0.5865335360342645	-0.8126000495625041	0.0	0.6379878087017332	-0.8396337095099173	0.0	0.619088959996137	-0.8440868080876094	0.0	0.5705526032731897	-0.830919589842129	0.0	0.6311275722378168	-0.5097158102436387	0.0	0.728241101509176	-0.6164948084096429	0.0	0.7406540647094573	-0.7656813061047716	0.0	0.7950420998717838	-0.7878858891375319	0.0	0.7931044771876764	-0.7843564450930862	0.0	0.7271806793430624	-0.7884259912012087	0.0	0.7007533395718368	-0.34659190602036627	0.0	0.7948501810145748	-0.315018283234801	0.0	0.7712963347937054	-0.3483823579760827	0.0	0.6951701731986485	-0.3434755795044843	0.0	0.788234847866806	-0.35172325144276917	0.0	0.8745568300597908	-0.31567799624021714	0.0	0.6847691863217694	-0.3393220717048453	0.0	0.6742528277390495	-0.3339659581151222	0.0	0.6812894045427756	-0.3063475621116904	0.0
36	0.7266666666666668	0.6222548690440133	-0.5142765474397893	0.0	0.6003460347307515	-0.512213568786335	0.0	0.642051179996885	-0.6701629041188967	0.0	0.5934021008135529	-0.8180029771323841	0.0	0.6450515917184361	-0.8447894036237055	0.0	0.6266147989554829	-0.8488525273382359	0.0	0.577598628116405	-0.8357121549622821	0.0	0.6476244434103532	-0.517117325977031	0.0	0.7443311721194833	-0.6235036864031982	0.0	0.7556283610740315	-0.7729186004514721	0.0	0.8105415072491037	-0.7945089985720697	0.0	0.8083012862890911	-0.790763616058302	0.0	0.7427709405166038	-0.7954024374691828	0.0	0.7235159861935992	-0.35860969119226505	0.0	0.8192968111882322	-0.3312650903698204	0.0	0.7940726634846275	-0.3633831692774621	0.0	0.7180882144299197	-0.3555970603991256	0.0	0.8116712172979733	-0.3672895898435353	0.0	0.8991452704238405	-0.3347149605073478	0.0	0.7089084641801879	-0.3521205809023713	0.0	0.703271765809098	-0.3506953220952482	0.0	0.7128845825019663	-0.32492803841583107	0.0
37	0.746851851851852	0.638612117564886	-0.5198900348138701	0.0	0.6168976564496188	-0.5176343600785619	0.0	0.6514381275507917	-0.6754657919647385	0.0	0.5967739294847819	-0.821992585628927	0.0	0.6481964576300974	-0.8492185453785699	0.0	0.6301465530511999	-0.8526778237108235	0.0	0.581044577353305	-0.8389588148017068	0.0	0.664161250181651	-0.5240330796068308	0.0	0.7600166038022214	-0.6304324977568249	0.0	0.7686515786725068	-0.779956747762833	0.0	0.8235939618656716	-0.8011255384204883	0.0	0.8212728689486835	-0.7971306526792358	0.0	0.7562150945612297	-0.8021305739258879	0.0	0.747244369847365	-0.3714667246186285	0.0	0.8443246649422707	-0.347988735388824	0.0	0.8174797984300539	-0.37887095149831485	0.0	0.7419406999547543	-0.36844077956917465	0.0	0.8358310198441943	-0.38422531205297206	0.0	0.9245346806359508	-0.3561587635045667	0.0	0.7342577326011853	-0.3661677859715327	0.0	0.734487234660591	-0.3691817559653762	0.0	0.7480451917624618	-0.3462605429992946	0.0
